<?xml version="1.0" standalone="no"?>
<!DOCTYPE svg PUBLIC "-//W3C//DTD SVG 20010904//EN"
 "http://www.w3.org/TR/2001/REC-SVG-20010904/DTD/svg10.dtd">
<svg version="1.0" xmlns="http://www.w3.org/2000/svg"
 width="336.000000pt" height="150.000000pt" viewBox="0 0 336.000000 150.000000"
 preserveAspectRatio="xMidYMid meet">
<metadata>
Created by potrace 1.15, written by Peter Selinger 2001-2017
</metadata>
<g transform="translate(0.000000,150.000000) scale(0.100000,-0.100000)"
fill="#000000" stroke="none">
<path d="M3057 1416 c-11 -8 -38 -18 -60 -21 -23 -4 -76 -15 -119 -26 -42 -10
-104 -19 -137 -19 -38 0 -84 -9 -126 -24 -79 -29 -82 -31 -64 -52 7 -9 18 -26
24 -38 6 -11 26 -26 45 -33 19 -6 49 -17 65 -23 17 -7 72 -11 127 -10 53 0 99
-3 102 -8 6 -9 -6 -55 -24 -97 -5 -11 -19 -50 -31 -88 -17 -57 -25 -68 -47
-73 -50 -12 -82 -34 -82 -56 0 -23 35 -58 58 -58 11 0 13 -9 7 -47 -4 -27 -14
-64 -22 -83 -8 -19 -15 -56 -16 -82 -1 -27 -4 -48 -8 -48 -3 0 -4 -33 -4 -74
2 -92 19 -122 72 -131 21 -3 46 -8 56 -10 9 -2 17 1 17 5 0 5 12 8 28 7 22 -2
30 4 42 30 8 18 22 33 31 33 9 0 22 7 29 15 7 8 9 15 5 15 -5 0 -2 8 6 18 23
28 40 62 31 62 -12 0 -12 53 -1 130 14 100 18 114 34 126 8 6 15 16 15 22 0 5
31 16 70 22 38 6 73 16 76 21 3 5 2 23 -1 40 -6 24 -17 35 -51 50 -52 23 -53
33 -20 116 14 33 30 91 37 129 6 38 19 78 29 89 27 31 32 58 16 97 -12 27 -25
39 -63 53 -26 11 -55 20 -63 21 -8 2 -26 6 -40 9 -14 3 -33 -1 -43 -9z"/>
<path d="M2157 1360 c-25 -20 -27 -27 -27 -100 0 -75 -1 -80 -36 -122 -20 -23
-45 -46 -55 -50 -11 -4 -19 -11 -19 -16 0 -5 -21 -17 -47 -27 -73 -27 -96 -52
-90 -98 10 -71 83 -102 184 -79 37 8 68 11 73 6 9 -10 30 -162 36 -274 3 -41
6 -80 9 -87 6 -18 -27 -96 -49 -115 -10 -10 -29 -18 -41 -18 -26 0 -55 -29
-55 -54 0 -73 97 -108 302 -108 68 0 86 4 143 32 62 31 65 34 65 69 -1 41 -11
58 -60 92 -38 26 -41 32 -46 99 -2 25 -8 74 -14 110 -5 36 -15 148 -20 250 -6
102 -13 214 -16 250 -3 36 -7 81 -8 101 -4 63 -62 127 -128 140 -24 4 -50 10
-59 14 -8 3 -27 -4 -42 -15z"/>
<path d="M354 1240 c-5 -5 -20 -11 -32 -13 -37 -6 -151 -98 -193 -156 -24 -33
-39 -66 -39 -83 0 -16 -7 -39 -15 -51 -20 -31 -1 -67 48 -90 21 -10 40 -23 43
-30 7 -20 72 -8 89 16 8 12 15 34 15 50 0 29 7 42 53 87 29 30 109 63 131 54
7 -3 28 -28 46 -55 l32 -50 -11 -80 c-18 -117 -55 -232 -102 -313 -23 -39 -47
-80 -52 -91 -17 -34 -139 -101 -169 -92 -14 4 -34 -38 -33 -68 1 -16 7 -43 13
-60 14 -34 102 -103 141 -111 14 -2 49 -12 76 -21 65 -22 373 -26 397 -5 9 7
32 13 53 14 21 1 39 7 42 15 3 8 12 12 20 9 8 -4 11 -1 8 5 -4 6 2 13 13 16
11 2 31 26 44 51 29 57 22 105 -22 152 -37 40 -74 39 -164 -4 -86 -42 -173
-53 -168 -21 4 21 39 75 56 87 6 4 18 28 27 55 10 26 28 80 42 118 21 58 29
89 41 155 1 3 5 10 9 17 4 6 9 39 12 73 4 56 0 85 -23 170 -10 36 -55 110 -67
110 -6 0 -16 9 -23 20 -7 11 -17 20 -23 20 -6 0 -31 14 -56 30 -24 17 -50 30
-57 30 -8 0 -19 6 -25 14 -7 8 -40 19 -75 25 -77 13 -89 14 -102 1z"/>
<path d="M1280 1243 c-19 -3 -39 -8 -45 -12 -5 -5 -21 -11 -35 -14 -33 -8 -90
-64 -90 -88 0 -10 -4 -20 -9 -23 -4 -3 -14 -27 -20 -53 -7 -27 -17 -56 -22
-66 -12 -22 -30 -108 -34 -162 -6 -68 -5 -287 1 -340 8 -73 60 -170 114 -214
25 -20 48 -40 51 -44 3 -5 10 -9 15 -9 5 0 20 -5 34 -10 34 -13 182 -13 207 0
11 6 23 9 26 6 3 -3 23 6 44 20 20 14 43 26 50 26 6 0 24 11 39 25 14 13 30
22 35 19 5 -3 9 -1 9 3 0 5 22 35 50 68 27 33 50 67 50 75 0 9 6 25 14 36 14
20 47 138 60 216 13 74 -26 210 -76 264 -10 12 -36 53 -56 91 -20 38 -55 85
-77 105 -69 61 -212 96 -335 81z m172 -220 c10 -10 26 -26 36 -36 11 -9 28
-34 38 -55 10 -20 24 -40 29 -44 6 -4 6 -8 2 -8 -5 0 -1 -7 8 -16 13 -14 15
-30 10 -87 -7 -90 -12 -111 -42 -176 -31 -67 -136 -172 -187 -188 -31 -10 -36
-9 -41 8 -4 10 -10 19 -15 19 -5 0 -8 13 -8 30 1 16 -3 35 -8 42 -11 15 -11
93 0 213 14 158 37 229 93 283 39 36 61 40 85 15z"/>
</g>
</svg>
