<?xml version="1.0" standalone="no"?>
<!DOCTYPE svg PUBLIC "-//W3C//DTD SVG 20010904//EN"
 "http://www.w3.org/TR/2001/REC-SVG-20010904/DTD/svg10.dtd">
<svg version="1.0" xmlns="http://www.w3.org/2000/svg"
 width="251.000000pt" height="302.000000pt" viewBox="0 0 251.000000 302.000000"
 preserveAspectRatio="xMidYMid meet">
<metadata>
Created by potrace 1.15, written by Peter Selinger 2001-2017
</metadata>
<g transform="translate(0.000000,302.000000) scale(0.100000,-0.100000)"
fill="#000000" stroke="none">
<path d="M1190 2951 c-67 -21 -140 -82 -140 -117 0 -12 -5 -12 -32 3 -81 42
-213 8 -291 -76 -65 -69 -77 -122 -51 -216 4 -17 -2 -22 -41 -33 -67 -18 -105
-59 -105 -114 l0 -43 -54 -1 c-74 -1 -151 -44 -191 -109 -25 -41 -30 -58 -29
-109 1 -76 20 -122 74 -180 l42 -45 -20 -28 c-10 -15 -22 -40 -26 -55 -10 -43
13 -125 49 -172 22 -30 30 -48 24 -57 -14 -23 -10 -113 6 -136 14 -19 12 -23
-19 -46 -85 -66 -88 -192 -5 -308 34 -48 93 -73 174 -72 41 0 86 7 109 17 50
21 49 21 70 -15 28 -47 101 -89 155 -89 57 0 95 22 151 89 61 72 73 68 94 -27
32 -145 31 -222 -3 -357 -31 -123 -74 -221 -123 -282 -26 -34 -138 -96 -272
-152 -63 -27 -71 -49 -21 -63 32 -8 220 7 270 22 17 5 63 9 103 8 79 -1 69 6
159 -103 18 -21 30 -26 60 -23 35 3 39 6 52 47 19 59 62 79 136 61 61 -14 301
-8 333 9 55 29 12 63 -106 85 -115 22 -155 52 -210 161 -40 77 -52 169 -52
384 0 213 2 221 50 244 23 11 44 30 52 48 9 21 20 29 39 29 33 0 79 35 79 60
0 18 2 18 41 5 56 -20 98 -19 163 5 62 24 120 81 131 129 8 39 34 56 119 80
76 21 107 45 137 109 52 107 13 221 -94 276 l-57 29 6 55 c3 30 13 66 21 79
31 47 17 129 -29 180 -19 21 -20 23 -3 39 39 39 45 105 16 169 -22 49 -74 95
-107 95 -27 0 -31 12 -9 30 8 7 20 30 25 51 21 76 -26 168 -116 228 -62 41
-88 47 -142 32 -42 -11 -45 -10 -78 19 -55 48 -113 73 -170 73 -56 0 -128 -29
-159 -64 -16 -17 -10 -16 41 8 85 40 153 38 222 -6 28 -18 67 -50 86 -72 20
-21 39 -39 42 -39 3 0 3 14 -1 30 l-7 30 49 0 c84 0 180 -78 204 -165 12 -42
0 -88 -39 -150 -16 -25 -19 -35 -8 -26 28 23 91 -2 121 -47 52 -78 46 -131
-23 -204 l-47 -50 37 15 37 16 23 -37 c40 -66 23 -197 -21 -159 -35 30 -40 27
-16 -9 33 -49 32 -77 -8 -133 -53 -73 -55 -79 -22 -57 17 10 35 25 42 33 28
36 121 -19 154 -92 25 -54 23 -100 -6 -162 -29 -64 -65 -88 -158 -104 -59 -11
-70 -10 -77 2 -5 8 -16 23 -25 34 l-16 20 9 -20 c18 -37 23 -100 12 -130 -17
-44 -49 -75 -105 -101 -84 -40 -168 -29 -234 30 -27 23 -19 3 11 -31 37 -40
-9 -83 -90 -83 -25 0 -33 -3 -23 -9 8 -5 11 -16 8 -24 -7 -19 -53 -50 -65 -45
-4 1 -2 39 6 83 14 77 16 81 54 105 54 34 113 110 133 171 l17 50 38 -6 c56
-10 104 16 124 66 31 77 17 116 -35 103 -32 -7 -59 -7 -67 1 -2 2 1 27 7 55
12 55 4 109 -22 143 -22 32 -44 9 -76 -79 -42 -117 -77 -183 -119 -226 -38
-40 -72 -50 -72 -20 1 58 25 170 56 257 66 186 65 220 -9 291 -23 22 -54 56
-69 76 -56 74 -183 102 -268 58 -22 -11 -40 -23 -40 -25 0 -3 14 2 32 11 51
26 155 16 207 -21 91 -63 119 -172 61 -239 -17 -18 -43 -37 -58 -41 l-27 -8
31 -13 c36 -15 74 -69 74 -106 0 -31 -32 -61 -93 -88 -43 -19 -47 -23 -41 -48
4 -15 8 -29 10 -30 10 -12 -23 -65 -50 -79 -64 -35 -210 -9 -253 45 -13 16
-13 15 -4 -3 13 -29 41 -52 83 -69 29 -12 37 -22 42 -50 15 -78 -28 -150 -74
-126 -36 19 -90 155 -90 227 0 41 -21 44 -55 7 -32 -34 -41 -99 -21 -147 18
-45 5 -48 -36 -7 -16 17 -31 30 -33 30 -11 0 -12 -67 -1 -93 17 -42 76 -93
116 -102 30 -7 109 -79 110 -100 0 -17 -90 -114 -121 -130 -58 -30 -128 -13
-192 47 l-38 36 22 38 22 39 -34 -32 c-40 -37 -99 -55 -180 -54 -89 0 -139 34
-178 121 -36 80 -25 155 32 209 l26 23 28 -19 c51 -36 58 -36 27 -2 -43 47
-67 96 -67 141 0 72 81 152 154 153 21 0 34 4 29 9 -25 25 -115 0 -154 -43
-29 -31 -40 -26 -67 31 -31 66 -31 129 -1 187 l23 43 -40 41 c-45 45 -71 110
-73 179 -2 128 147 221 277 172 19 -7 19 -7 2 13 -9 11 -17 36 -17 57 0 53 40
90 112 105 l56 12 -15 47 c-8 26 -12 64 -9 85 10 84 98 166 201 187 65 14 111
-2 168 -58 37 -36 53 -27 22 14 -24 32 -17 59 24 96 43 40 121 63 182 55 21
-3 62 -19 90 -37 57 -35 75 -33 39 5 -52 55 -152 79 -230 56z m357 -1011 c-3
-36 -15 -91 -27 -123 l-23 -58 -17 39 c-10 21 -29 48 -44 59 -32 26 -32 29 -2
37 34 8 66 64 66 116 l0 43 26 -24 c24 -22 26 -29 21 -89z m203 -193 c0 -15
-7 -41 -16 -58 -28 -55 6 -89 76 -75 35 6 38 -5 16 -58 -19 -45 -52 -66 -102
-66 -46 0 -60 -12 -92 -76 -18 -36 -89 -113 -147 -159 -13 -11 -16 -18 -8 -21
9 -4 8 -13 -2 -38 -33 -79 -49 -209 -49 -396 1 -232 12 -296 70 -392 24 -40
49 -80 56 -88 28 -34 72 -60 101 -60 16 0 66 -12 110 -27 72 -23 78 -27 56
-36 -22 -8 -229 -11 -371 -6 -51 2 -58 5 -58 23 0 31 -27 -24 -43 -88 -10 -39
-18 -52 -34 -54 -20 -3 -27 3 -108 96 -28 31 -43 41 -57 36 -10 -3 -40 0 -66
6 -41 11 -55 10 -116 -9 -73 -22 -231 -39 -262 -27 -16 6 -15 8 6 23 13 9 48
20 78 24 37 5 69 18 98 38 23 17 62 40 87 50 43 18 47 24 115 163 39 78 79
172 88 208 25 93 23 206 -5 320 -23 93 -24 96 -87 156 -35 34 -64 66 -64 72 0
7 -12 14 -27 17 -50 11 -95 39 -119 74 -32 47 -32 72 -1 43 25 -24 68 -42 99
-42 19 0 20 2 6 18 -46 51 -59 119 -35 176 12 28 13 28 26 -35 15 -74 63 -174
90 -189 39 -20 78 -12 102 21 18 26 21 40 16 95 -5 62 -4 64 18 58 35 -9 105
15 137 46 21 21 28 38 28 67 0 22 -5 44 -12 51 -9 9 -7 12 8 12 11 0 42 11 68
24 46 23 47 23 40 2 -30 -93 -32 -174 -4 -207 l19 -24 1 23 c0 15 6 22 20 22
28 0 92 61 123 117 14 27 40 86 57 132 17 46 33 89 37 94 9 15 32 -40 33 -76z"/>
<path d="M1226 349 c-14 -11 -31 -30 -38 -42 -9 -17 -3 -14 26 11 27 23 47 32
74 33 30 0 33 2 17 9 -32 14 -51 11 -79 -11z"/>
<path d="M970 2541 c-126 -39 -201 -134 -203 -257 -1 -48 5 -70 25 -107 l27
-47 -38 0 c-49 0 -101 -34 -125 -84 -16 -32 -17 -44 -8 -74 8 -25 8 -40 1 -49
-22 -26 -14 -81 16 -113 16 -16 34 -30 39 -30 6 0 3 7 -6 14 -22 16 -47 76
-40 96 2 8 16 27 30 42 23 25 23 26 4 21 -31 -8 -39 35 -16 82 22 47 63 72
132 81 43 5 51 9 37 16 -27 16 -55 88 -55 146 0 128 96 227 232 239 103 10
165 -28 240 -147 l29 -45 -3 37 c-3 51 25 86 97 123 48 24 71 30 124 30 84 0
127 -23 159 -85 27 -54 28 -111 2 -170 l-20 -45 23 26 c31 37 59 43 121 25 93
-27 122 -95 70 -163 -23 -30 -24 -34 -7 -39 59 -19 77 -31 94 -58 32 -53 23
-93 -34 -153 -25 -27 -28 -33 -13 -33 28 0 84 62 91 102 13 69 -48 148 -114
148 l-24 0 26 25 c35 36 41 70 20 113 -23 47 -89 82 -153 82 l-45 0 3 59 c4
70 -20 127 -70 163 -89 63 -308 15 -350 -78 -11 -24 -12 -23 -67 35 -40 42
-68 62 -96 70 -45 12 -118 13 -155 2z"/>
<path d="M812 1713 c42 -6 88 -66 88 -112 0 -31 -6 -44 -31 -65 -17 -14 -41
-29 -55 -32 -22 -6 -23 -10 -18 -45 9 -55 -2 -85 -40 -108 -61 -38 -142 -17
-166 43 -7 16 -9 17 -9 4 -1 -26 56 -86 89 -93 67 -15 154 46 153 107 0 18 -4
43 -8 56 -7 20 -4 22 23 22 21 0 40 10 62 32 30 29 32 36 27 82 -4 41 -11 55
-41 83 -26 25 -44 33 -68 32 -30 -2 -30 -2 -6 -6z"/>
</g>
</svg>
