<?xml version="1.0" standalone="no"?>
<!DOCTYPE svg PUBLIC "-//W3C//DTD SVG 20010904//EN"
 "http://www.w3.org/TR/2001/REC-SVG-20010904/DTD/svg10.dtd">
<svg version="1.0" xmlns="http://www.w3.org/2000/svg"
 width="480.000000pt" height="360.000000pt" viewBox="0 0 480.000000 360.000000"
 preserveAspectRatio="xMidYMid meet">
<metadata>
Created by potrace 1.15, written by Peter Selinger 2001-2017
</metadata>
<g transform="translate(0.000000,360.000000) scale(0.100000,-0.100000)"
fill="#000000" stroke="none">
<path d="M0 3500 l0 -100 2400 0 2400 0 0 100 0 100 -2400 0 -2400 0 0 -100z"/>
<path d="M2354 2917 c-51 -89 -140 -245 -199 -347 -136 -234 -291 -503 -321
-557 -13 -23 -21 -44 -16 -46 4 -3 293 -5 644 -6 441 -2 638 1 643 8 3 6 -3
23 -13 39 -11 15 -51 81 -89 147 -70 121 -239 413 -298 515 -18 30 -65 111
-105 180 -40 69 -86 148 -101 175 -15 28 -33 51 -41 52 -8 2 -51 -64 -104
-160z m147 15 c18 -31 41 -73 52 -92 23 -42 38 -68 78 -135 16 -27 35 -61 42
-75 6 -14 14 -27 18 -30 3 -3 17 -26 31 -51 14 -25 45 -79 70 -120 24 -41 80
-137 123 -214 44 -77 87 -151 97 -164 10 -13 18 -28 18 -32 0 -5 -256 -9 -570
-9 -313 0 -570 3 -569 8 0 4 9 21 20 37 10 17 22 37 26 45 3 8 24 42 45 76 21
34 38 64 38 67 0 4 16 31 35 61 19 30 35 57 35 60 0 3 21 40 47 83 43 73 79
136 148 258 15 28 31 55 35 60 4 6 18 28 30 50 13 22 36 63 52 90 16 28 34 60
40 72 14 29 19 25 59 -45z"/>
<path d="M3984 3037 c-23 -18 -119 -86 -213 -152 -277 -193 -321 -226 -321
-235 0 -8 88 -285 185 -585 l32 -100 354 -3 354 -2 32 97 c17 54 68 204 113
333 44 129 78 240 76 246 -3 7 -91 79 -196 161 -294 227 -354 272 -365 272 -5
0 -29 -15 -51 -32z m124 -69 c37 -29 121 -95 187 -148 66 -52 135 -105 153
-117 18 -13 45 -34 60 -48 15 -14 32 -25 39 -25 14 0 17 -12 7 -23 -3 -3 -42
-111 -86 -239 -43 -128 -89 -261 -101 -295 l-21 -63 -321 0 -320 0 -12 28 c-6
15 -43 128 -83 252 -39 124 -80 251 -91 283 -10 31 -19 61 -19 66 0 5 28 27
63 50 34 22 154 105 267 185 113 80 206 145 208 146 1 0 33 -23 70 -52z"/>
<path d="M269 3025 c-3 -22 3 -1080 6 -1083 7 -7 1089 -2 1094 5 3 5 4 250 1
546 l-5 537 -548 3 c-359 1 -547 -1 -548 -8z m1059 -542 l2 -503 -510 0 -510
0 0 505 0 505 508 -2 507 -3 3 -502z"/>
<path d="M793 1733 l-301 -3 -11 -28 c-6 -15 -19 -40 -29 -57 -10 -16 -39 -68
-64 -115 -75 -141 -119 -221 -159 -293 l-38 -67 49 -81 c28 -44 50 -82 50 -83
0 -2 34 -61 75 -132 42 -71 90 -155 108 -186 l32 -58 307 0 c292 0 338 3 338
20 0 4 22 45 48 91 27 46 93 161 147 254 54 94 102 176 108 182 6 9 2 23 -17
47 -14 19 -26 37 -26 40 0 2 -50 89 -111 193 -62 103 -121 204 -132 223 -28
50 -37 60 -56 58 -9 -2 -152 -4 -318 -5z m321 -52 c15 -17 116 -179 116 -187
0 -2 29 -52 65 -110 36 -59 65 -108 65 -110 0 -3 11 -23 26 -45 l25 -40 -117
-202 c-101 -175 -170 -292 -181 -306 -1 -2 -132 -6 -290 -8 l-288 -5 -29 49
c-32 52 -81 136 -194 331 l-71 123 23 42 c13 23 42 78 66 122 24 44 57 105 73
135 17 30 50 91 73 135 l43 80 253 5 c139 3 270 6 290 6 23 0 44 -6 52 -15z"/>
<path d="M3910 1733 l-125 -4 -163 -162 c-129 -129 -162 -166 -157 -182 3 -11
5 -112 5 -225 l-1 -205 166 -163 167 -162 226 0 227 1 163 158 163 159 -7 229
-7 230 -164 166 -165 167 -101 -2 c-56 -1 -158 -4 -227 -5z m-92 -88 c-3 -3
-9 2 -12 12 -6 14 -5 15 5 6 7 -7 10 -15 7 -18z m482 -47 c0 -7 -13 3 -30 22
-38 46 -38 65 0 22 17 -18 30 -38 30 -44z m-526 37 c-7 -16 -24 -21 -24 -6 0
8 7 13 27 20 1 1 0 -6 -3 -14z m635 -131 c12 -14 20 -29 16 -32 -4 -4 -11 1
-16 10 -6 10 -24 32 -42 49 -27 26 -28 28 -6 15 14 -9 35 -28 48 -42z m-813
-42 c-17 -16 -18 -16 -5 5 7 12 15 20 18 17 3 -2 -3 -12 -13 -22z m-40 -47
c-12 -9 -16 -20 -12 -31 5 -14 4 -15 -9 -4 -14 12 -14 15 1 31 10 11 22 19 28
19 6 0 3 -7 -8 -15z m964 -40 c0 -8 -4 -15 -10 -15 -5 0 -7 7 -4 15 4 8 8 15
10 15 2 0 4 -7 4 -15z m7 -397 c-2 -13 -4 -5 -4 17 -1 22 1 32 4 23 2 -10 2
-28 0 -40z m-32 -37 c3 -5 1 -12 -5 -16 -5 -3 -10 1 -10 9 0 18 6 21 15 7z
m-860 -61 c3 -5 1 -10 -4 -10 -6 0 -11 5 -11 10 0 6 2 10 4 10 3 0 8 -4 11
-10z m735 -65 c-7 -9 -15 -13 -19 -10 -3 3 1 10 9 15 21 14 24 12 10 -5z m-86
-80 c-14 -19 -28 -35 -30 -35 -2 0 6 16 17 35 12 19 25 35 30 35 6 0 -2 -16
-17 -35z"/>
<path d="M2225 1619 c-143 -71 -221 -116 -223 -127 -3 -16 -87 -402 -97 -449
-4 -17 27 -61 135 -193 77 -94 147 -182 156 -195 l16 -25 254 0 253 0 98 128
c53 70 100 129 103 132 3 3 28 33 54 68 l48 64 -11 51 c-6 29 -22 104 -36 167
-26 118 -55 258 -55 267 0 2 -39 22 -87 45 -49 22 -152 71 -230 109 -78 38
-146 69 -150 68 -4 0 -107 -50 -228 -110z m475 -49 c19 -8 37 -16 40 -20 3 -3
30 -16 60 -30 30 -13 60 -29 66 -34 12 -12 31 -87 59 -226 10 -47 21 -96 26
-110 4 -14 11 -46 15 -73 7 -52 2 -62 -70 -152 -23 -28 -51 -64 -63 -80 -72
-97 -105 -135 -113 -135 -6 0 -10 -6 -10 -13 0 -11 -46 -15 -225 -20 -124 -3
-232 -4 -239 -1 -8 3 -47 47 -87 97 -78 97 -92 114 -134 162 -14 17 -37 46
-51 66 l-25 37 17 78 c9 44 23 108 31 144 8 36 18 88 24 115 22 118 -7 93 273
232 l158 79 107 -51 c58 -28 122 -58 141 -65z"/>
<path d="M0 100 l0 -100 2400 0 2400 0 0 100 0 100 -2400 0 -2400 0 0 -100z"/>
</g>
</svg>
